<?xml version="1.0" encoding="utf-8"?>
<!-- Generator: Adobe Illustrator 16.0.0, SVG Export Plug-In . SVG Version: 6.00 Build 0)  -->
<!DOCTYPE svg PUBLIC "-//W3C//DTD SVG 1.1//EN" "http://www.w3.org/Graphics/SVG/1.1/DTD/svg11.dtd">
<svg version="1.1" id="Warstwa_1" xmlns="http://www.w3.org/2000/svg" xmlns:xlink="http://www.w3.org/1999/xlink" x="0px" y="0px"
	 width="566.93px" height="283.46px" viewBox="0 0 566.93 283.46" enable-background="new 0 0 566.93 283.46" xml:space="preserve">
<g>
	<path fill="#868686" d="M161.349,178.029c-12.205,0-24.104-8.742-24.104-28.578c0-19.837,11.899-28.479,24.104-28.479
		c6.001,0,10.682,1.526,14.037,3.762l-3.664,8.036c-2.236-1.626-5.587-2.641-8.951-2.641c-7.325,0-14.034,5.793-14.034,19.216
		c0,13.428,6.917,19.332,14.034,19.332c3.364,0,6.715-1.017,8.951-2.65l3.664,8.241C171.93,176.609,167.35,178.029,161.349,178.029z
		"/>
	<path fill="#868686" d="M205.911,178.029c-15.563,0-24.104-12.305-24.104-28.578c0-16.277,8.541-28.479,24.104-28.479
		c15.556,0,24.104,12.202,24.104,28.479C230.015,165.725,221.467,178.029,205.911,178.029z M205.911,129.82
		c-8.648,0-12.922,7.729-12.922,19.526c0,11.805,4.273,19.632,12.922,19.632c8.638,0,12.916-7.827,12.916-19.632
		C218.827,137.549,214.549,129.82,205.911,129.82z"/>
	<path fill="#868686" d="M247.523,112.119c-3.664,0-6.611-2.839-6.611-6.304c0-3.453,2.947-6.305,6.611-6.305
		c3.661,0,6.608,2.853,6.608,6.305C254.131,109.28,251.184,112.119,247.523,112.119z M241.926,176.915v-54.828h11.188v54.828
		H241.926z"/>
	<path fill="#868686" d="M299.701,176.915V140.3c0-6.409-3.863-10.383-11.494-10.383c-4.065,0-7.828,0.714-10.074,1.633v45.364
		h-11.08v-52.08c5.489-2.236,12.511-3.863,21.052-3.863c15.36,0,22.783,6.712,22.783,18.308v37.635H299.701z"/>
	<path fill="#868686" d="M342.939,178.029c-7.123,0-14.138-1.724-18.405-3.858V97.068h11.087v26.448
		c2.641-1.226,6.918-2.24,10.677-2.24c14.137,0,23.695,10.175,23.695,26.956C369.993,168.88,359.313,178.029,342.939,178.029z
		 M344.367,129.917c-3.055,0-6.614,0.714-8.746,1.833v36.009c1.623,0.713,4.775,1.424,7.932,1.424
		c8.844,0,15.356-6.103,15.356-20.136C358.909,137.047,353.215,129.917,344.367,129.917z"/>
	<path fill="#868686" d="M402.754,178.029c-15.761,0-23.692-6.405-23.692-17.188c0-15.256,16.271-18.001,32.85-18.917v-3.456
		c0-6.917-4.576-9.362-11.595-9.362c-5.19,0-11.491,1.633-15.154,3.357l-2.847-7.628c4.371-1.93,11.794-3.863,19.119-3.863
		c13.121,0,21.059,5.082,21.059,18.61v34.588C418.522,176.306,410.487,178.029,402.754,178.029z M411.911,149.346
		c-11.19,0.613-22.382,1.533-22.382,11.296c0,5.793,4.479,9.355,12.923,9.355c3.563,0,7.729-0.608,9.459-1.421V149.346z"/>
	<path fill="#868686" d="M450.068,178.029c-6.412,0-13.121-1.724-17.088-3.858l3.759-8.545c2.849,1.729,8.85,3.557,13.022,3.557
		c5.999,0,9.969-2.946,9.969-7.527c0-4.983-4.173-6.911-9.767-8.951c-7.318-2.745-15.568-6.099-15.568-16.374
		c0-9.053,7.024-15.357,19.229-15.357c6.614,0,12.104,1.626,15.97,3.863l-3.455,7.726c-2.444-1.519-7.328-3.253-11.296-3.253
		c-5.792,0-9.052,3.055-9.052,7.022c0,4.984,4.068,6.712,9.459,8.746c7.628,2.853,16.072,6.005,16.072,16.688
		C471.323,171.624,463.796,178.029,450.068,178.029z"/>
	<path fill="#868686" d="M527.985,149.248l-36.419,5.086c1.121,9.861,7.53,14.849,16.789,14.849c5.488,0,11.396-1.326,15.15-3.354
		l3.261,8.343c-4.277,2.235-11.599,3.858-19.122,3.858c-17.287,0-26.957-11.082-26.957-28.578c0-16.782,9.36-28.479,24.711-28.479
		c14.245,0,22.686,9.359,22.686,24.104C528.084,146.396,528.084,147.827,527.985,149.248z M505.199,129.106
		c-8.541,0-14.139,6.509-14.34,17.9l26.545-3.658C517.307,133.787,512.521,129.106,505.199,129.106z"/>
</g>
<linearGradient id="SVGID_1_" gradientUnits="userSpaceOnUse" x1="37.0259" y1="95.9189" x2="107.3996" y2="197.5697">
	<stop  offset="0.1436" style="stop-color:#0081D8"/>
	<stop  offset="1" style="stop-color:#192668"/>
</linearGradient>
<path fill="url(#SVGID_1_)" d="M99.895,156.478c0.08-0.257,0.149-0.515,0.201-0.774l0.017-11.762
	c-0.166-0.982-0.552-1.934-1.105-2.852c2.771-1.965,4.572-4.265,5.063-6.745l0.016-11.762c-1.275-7.543-14.568-13.477-30.818-13.477
	c-16.244,0-29.531,5.934-30.806,13.477l0.023,11.762c0.181,0.921,0.543,1.818,1.067,2.682c-2.819,2.013-4.634,4.369-5.064,6.915
	l0.023,11.762c0.465,2.374,2.13,4.581,4.698,6.489c-0.096,0.312-0.172,0.626-0.226,0.943l0.023,11.762
	c1.46,7.445,14.683,13.271,30.783,13.271c16.11,0,29.329-5.825,30.803-13.271l0.017-11.762
	C104.196,160.697,102.513,158.432,99.895,156.478z M84.456,150.561c-0.065-0.011-0.127-0.025-0.192-0.036
	c-4.155,1.295-9.42,2.069-15.15,2.069c-3.827,0-7.441-0.347-10.662-0.96c-7.978-1.554-13.458-4.763-13.458-8.479
	c0-1.061,0.456-2.081,1.285-3.034c5.291,4.473,15.393,7.494,26.989,7.494c7.735,0,14.799-1.345,20.22-3.565
	C92.857,146.684,89.465,149,84.456,150.561z M73.284,112.324c13.408,0,24.289,4.248,24.289,9.473c0,5.238-10.881,9.473-24.289,9.473
	c-13.431,0-24.315-4.235-24.315-9.473C48.968,116.572,59.853,112.324,73.284,112.324z M73.805,171.823
	c-9.695,0-18.061-2.208-21.966-5.405c4.967,1.612,10.977,2.556,17.455,2.556c12.581,0,23.397-3.552,28.234-8.654
	c0.368,0.655,0.567,1.334,0.567,2.03C98.095,167.589,87.213,171.823,73.805,171.823z"/>
</svg>
